<svg width="122" height="46" viewBox="0 0 122 46" fill="none" xmlns="http://www.w3.org/2000/svg">
<path d="M115.322 18.5373C116.492 18.5373 117.533 18.7657 118.447 19.2226C119.379 19.6795 120.11 20.3831 120.64 21.3334C121.17 22.2654 121.435 23.4716 121.435 24.9518V33.3401H118.009V25.3904C118.009 24.0929 117.698 23.1243 117.077 22.4847C116.473 21.8451 115.624 21.5253 114.527 21.5253C113.723 21.5253 113.01 21.6897 112.389 22.0187C111.768 22.3476 111.283 22.8411 110.936 23.499C110.607 24.1386 110.443 24.9518 110.443 25.9387V33.3401H107.016V12.9999H110.443V22.6492L109.703 21.443C110.214 20.511 110.954 19.7983 111.923 19.3048C112.91 18.7931 114.043 18.5373 115.322 18.5373Z" fill="#501872"/>
<path d="M97.4313 33.532C96.2069 33.532 95.0282 33.3767 93.8951 33.066C92.7803 32.737 91.894 32.3441 91.2361 31.8872L92.5519 29.283C93.2098 29.7034 93.9956 30.0506 94.9094 30.3247C95.8231 30.5988 96.7369 30.7359 97.6506 30.7359C98.7289 30.7359 99.5056 30.5897 99.9807 30.2973C100.474 30.0049 100.721 29.612 100.721 29.1186C100.721 28.7165 100.556 28.415 100.227 28.2139C99.8985 27.9946 99.469 27.8302 98.939 27.7205C98.4091 27.6109 97.8151 27.5104 97.1572 27.419C96.5176 27.3276 95.8688 27.2088 95.2109 27.0626C94.5713 26.8981 93.9865 26.6697 93.4565 26.3773C92.9265 26.0666 92.4971 25.6554 92.1681 25.1437C91.8392 24.632 91.6747 23.9559 91.6747 23.1152C91.6747 22.1832 91.9397 21.3791 92.4697 20.7029C92.9996 20.0084 93.7398 19.4785 94.6901 19.113C95.6587 18.7292 96.8008 18.5373 98.1167 18.5373C99.1035 18.5373 100.099 18.6469 101.105 18.8662C102.11 19.0855 102.941 19.3962 103.599 19.7983L102.283 22.4025C101.589 21.9821 100.885 21.6989 100.173 21.5527C99.4781 21.3882 98.7837 21.306 98.0892 21.306C97.0476 21.306 96.2709 21.4613 95.7592 21.772C95.2657 22.0827 95.019 22.4756 95.019 22.9507C95.019 23.3893 95.1835 23.7183 95.5125 23.9376C95.8414 24.1569 96.2709 24.3305 96.8008 24.4584C97.3308 24.5863 97.9156 24.696 98.5553 24.7874C99.2132 24.8605 99.8619 24.9793 100.502 25.1437C101.141 25.3082 101.726 25.5366 102.256 25.8291C102.804 26.1032 103.243 26.4961 103.572 27.0078C103.901 27.5195 104.065 28.1865 104.065 29.0089C104.065 29.9227 103.791 30.7176 103.243 31.3938C102.713 32.07 101.954 32.6 100.968 32.9837C99.9807 33.3492 98.802 33.532 97.4313 33.532Z" fill="#501872"/>
<path d="M81.8191 33.532C80.3206 33.532 78.9865 33.2122 77.8169 32.5726C76.6473 31.9147 75.7244 31.0192 75.0482 29.8861C74.372 28.7531 74.0339 27.4647 74.0339 26.0209C74.0339 24.5589 74.372 23.2705 75.0482 22.1558C75.7244 21.0227 76.6473 20.1364 77.8169 19.4967C78.9865 18.8571 80.3206 18.5373 81.8191 18.5373C83.336 18.5373 84.6792 18.8571 85.8488 19.4967C87.0367 20.1364 87.9596 21.0136 88.6175 22.1283C89.2936 23.2431 89.6317 24.5407 89.6317 26.0209C89.6317 27.4647 89.2936 28.7531 88.6175 29.8861C87.9596 31.0192 87.0367 31.9147 85.8488 32.5726C84.6792 33.2122 83.336 33.532 81.8191 33.532ZM81.8191 30.5988C82.6598 30.5988 83.4091 30.4161 84.067 30.0506C84.7249 29.6851 85.2366 29.1551 85.6021 28.4607C85.9858 27.7662 86.1777 26.953 86.1777 26.0209C86.1777 25.0706 85.9858 24.2574 85.6021 23.5812C85.2366 22.8868 84.7249 22.3568 84.067 21.9913C83.4091 21.6258 82.6689 21.443 81.8465 21.443C81.0059 21.443 80.2566 21.6258 79.5987 21.9913C78.9591 22.3568 78.4474 22.8868 78.0636 23.5812C77.6798 24.2574 77.4879 25.0706 77.4879 26.0209C77.4879 26.953 77.6798 27.7662 78.0636 28.4607C78.4474 29.1551 78.9591 29.6851 79.5987 30.0506C80.2566 30.4161 80.9967 30.5988 81.8191 30.5988Z" fill="#501872"/>
<path d="M56 33.3401V14.1513H63.8948C65.5944 14.1513 67.0473 14.4254 68.2534 14.9737C69.4779 15.5219 70.419 16.3078 71.0769 17.3312C71.7348 18.3546 72.0638 19.5699 72.0638 20.9771C72.0638 22.3842 71.7348 23.5995 71.0769 24.6229C70.419 25.6463 69.4779 26.4322 68.2534 26.9804C67.0473 27.5287 65.5944 27.8028 63.8948 27.8028H57.9737L59.5636 26.1306V33.3401H56ZM59.5636 26.5144L57.9737 24.7874H63.7304C65.302 24.7874 66.4808 24.4585 67.2666 23.8006C68.0707 23.1244 68.4727 22.1832 68.4727 20.9771C68.4727 19.7526 68.0707 18.8115 67.2666 18.1536C66.4808 17.4956 65.302 17.1667 63.7304 17.1667H57.9737L59.5636 15.4123V26.5144Z" fill="#501872"/>
<path fill-rule="evenodd" clip-rule="evenodd" d="M0 0V45.9912H10.9503V31.4711C14.8687 31.4711 24.5888 30.836 27.4065 29.5658C30.2242 28.2956 32.3815 26.4997 33.8784 24.1782C35.4194 21.813 36.1898 19.0097 36.1898 15.7684C36.1898 12.4395 35.4194 9.61436 33.8784 7.29289C32.3815 4.92763 30.2242 3.13179 27.4065 1.90535C24.5888 0.635117 21.2208 0 17.3024 0H0ZM30.8838 10.5613C30.8838 10.5613 32.1188 10.4244 32.1004 11.5675C32.1004 11.5675 32.2004 12.6409 31.4177 12.6288L29.8175 12.603C30.1915 12.9692 30.4834 13.4065 30.6748 13.8875C30.8662 14.3684 30.9529 14.8826 30.9296 15.3975L30.8432 20.7574C30.8432 20.7574 31.3091 23.9724 26.4041 23.8933L7.47529 23.5883C2.57048 23.5092 3.13973 20.3109 3.13973 20.3109L3.22612 14.951C3.21931 14.4356 3.32256 13.9245 3.52935 13.4499C3.73614 12.9754 4.04199 12.5477 4.42762 12.1938L2.16223 12.1573C1.22561 12.1422 1.51409 11.0746 1.51409 11.0746C1.53251 9.93138 2.76249 10.108 2.76249 10.108L3.55039 10.1207C4.73355 10.1398 4.91467 11.1294 4.91467 11.1294L5.57992 11.1401C5.91386 10.2501 7.27763 6.77231 8.44753 6.08262C9.79165 5.29053 17.2359 5.36259 17.2359 5.36259C17.2359 5.36259 24.6786 5.53047 25.9965 6.36547C27.1432 7.09232 28.3937 10.6106 28.6993 11.5121L28.6993 11.512C28.7014 11.5028 28.9179 10.5296 30.0954 10.5486L30.8838 10.5613ZM27.4614 17.6091C29.1659 17.4032 28.9743 15.5332 28.9743 15.5332C28.9743 15.5332 26.6068 15.5665 25.4359 15.9427C24.265 16.3189 24.0917 17.8959 24.0917 17.8959C24.0917 17.8959 25.7569 17.815 27.4614 17.6091ZM8.24196 8.473L7.59364 10.0782C7.59364 10.0782 7.02061 11.541 8.81518 11.5699L25.5326 11.8393C27.327 11.8682 26.8014 10.3877 26.8014 10.3877L26.2048 8.76251C25.6084 7.13711 24.7675 7.016 23.2691 6.81224C21.7707 6.60849 17.2582 6.46405 17.2582 6.46405C17.2582 6.46405 12.7433 6.46316 11.239 6.61835C9.73461 6.77354 8.89045 6.86766 8.24196 8.473ZM8.6985 15.6726C7.54033 15.2591 5.17535 15.1492 5.17535 15.1492L5.17534 15.1496C5.17534 15.1496 4.92392 17.0121 6.62054 17.2729C8.31716 17.5336 9.97922 17.6681 9.97922 17.6681C9.97922 17.6681 9.85666 16.0862 8.6985 15.6726ZM6.48273 22.0756L9.70493 22.1275L9.70527 22.1279C10.6666 22.1434 10.8942 20.2561 10.8942 20.2561L4.60924 20.1549C4.5752 22.2667 6.48273 22.0756 6.48273 22.0756ZM19.8307 21.8003C21.2109 21.8226 21.3977 20.9401 21.3977 20.9401C21.3977 20.9401 21.461 20.7853 21.5556 20.5357L12.4291 20.3886C12.516 20.6418 12.5741 20.7979 12.5741 20.7979C12.5741 20.7979 12.7323 21.6859 14.1125 21.7082L19.8307 21.8003ZM11.8601 18.4646L22.1858 18.631L22.1859 18.631C22.4656 17.6075 22.6251 16.5743 22.2356 16.31C21.4067 15.7461 17.068 15.7241 17.068 15.7241C17.068 15.7241 12.7312 15.6063 11.8843 16.1432C11.4874 16.3948 11.6138 17.4326 11.8601 18.4646ZM24.9675 22.3739L28.1902 22.4258C29.1518 22.4413 29.3788 20.5541 29.3788 20.5541L23.094 20.4528C23.0599 22.5646 24.9675 22.3739 24.9675 22.3739Z" fill="#501872"/>
</svg>
