<svg width="16" height="13" viewBox="0 0 16 13" fill="none" xmlns="http://www.w3.org/2000/svg">
<path opacity="0.2" d="M4.92317 4.30769V11.6923H0.615479V4.30769H4.92317Z" fill="#501872"/>
<path d="M15.3846 0H0.615385C0.452174 0 0.295649 0.0648351 0.180242 0.180242C0.064835 0.295649 0 0.452174 0 0.615385V11.0769C0 11.4033 0.12967 11.7164 0.360484 11.9472C0.591298 12.178 0.904349 12.3077 1.23077 12.3077H14.7692C15.0957 12.3077 15.4087 12.178 15.6395 11.9472C15.8703 11.7164 16 11.4033 16 11.0769V0.615385C16 0.452174 15.9352 0.295649 15.8198 0.180242C15.7044 0.0648351 15.5478 0 15.3846 0ZM1.23077 4.92308H4.30769V7.38462H1.23077V4.92308ZM5.53846 4.92308H14.7692V7.38462H5.53846V4.92308ZM14.7692 1.23077V3.69231H1.23077V1.23077H14.7692ZM1.23077 8.61538H4.30769V11.0769H1.23077V8.61538ZM14.7692 11.0769H5.53846V8.61538H14.7692V11.0769Z" fill="#501872"/>
</svg>
