<svg width="16" height="17" viewBox="0 0 16 17" fill="none" xmlns="http://www.w3.org/2000/svg">
<path d="M5.75 0C5.55109 0 5.36032 0.0790177 5.21967 0.21967C5.07902 0.360322 5 0.551088 5 0.75V2H4.14C3.56193 1.99989 3.00168 2.20011 2.55461 2.56658C2.10755 2.93306 1.8013 3.44314 1.688 4.01L1.49 5H0.75C0.551088 5 0.360322 5.07902 0.21967 5.21967C0.0790176 5.36032 2.84469e-08 5.55109 2.84469e-08 5.75C2.84469e-08 5.94891 0.0790176 6.13968 0.21967 6.28033C0.360322 6.42098 0.551088 6.5 0.75 6.5H1.19L1.079 7.06C0.767613 7.15106 0.494141 7.34061 0.2996 7.60024C0.105059 7.85987 -6.31343e-05 8.17557 2.84469e-08 8.5V12.5C2.84469e-08 12.8978 0.158035 13.2794 0.43934 13.5607C0.720644 13.842 1.10218 14 1.5 14H14.5C14.8978 14 15.2794 13.842 15.5607 13.5607C15.842 13.2794 16 12.8978 16 12.5V8.5C16.0001 8.17557 15.8949 7.85987 15.7004 7.60024C15.5059 7.34061 15.2324 7.15106 14.921 7.06L14.809 6.5H15.25L15.352 6.493C15.5316 6.46835 15.6961 6.37952 15.8152 6.24293C15.9344 6.10634 16 5.93124 16 5.75L15.993 5.648C15.9684 5.46845 15.8795 5.30389 15.7429 5.18477C15.6063 5.06564 15.4312 5.00001 15.25 5H14.509L14.312 4.01C14.1987 3.44314 13.8925 2.93306 13.4454 2.56658C12.9983 2.20011 12.4381 1.99989 11.86 2H11V0.75C11 0.551088 10.921 0.360322 10.7803 0.21967C10.6397 0.0790177 10.4489 0 10.25 0H5.75ZM4.14 3H11.86C12.2068 2.99998 12.5429 3.12013 12.8111 3.34001C13.0793 3.55989 13.263 3.86592 13.331 4.206L13.891 7H2.11L2.669 4.206C2.73694 3.86608 2.92051 3.56019 3.1885 3.34033C3.45649 3.12047 3.79336 3.00021 4.14 3ZM3 10.5C3 10.2348 3.10536 9.98043 3.29289 9.79289C3.48043 9.60536 3.73478 9.5 4 9.5C4.26522 9.5 4.51957 9.60536 4.70711 9.79289C4.89464 9.98043 5 10.2348 5 10.5C5 10.7652 4.89464 11.0196 4.70711 11.2071C4.51957 11.3946 4.26522 11.5 4 11.5C3.73478 11.5 3.48043 11.3946 3.29289 11.2071C3.10536 11.0196 3 10.7652 3 10.5ZM11 10.5C11 10.2348 11.1054 9.98043 11.2929 9.79289C11.4804 9.60536 11.7348 9.5 12 9.5C12.2652 9.5 12.5196 9.60536 12.7071 9.79289C12.8946 9.98043 13 10.2348 13 10.5C13 10.7652 12.8946 11.0196 12.7071 11.2071C12.5196 11.3946 12.2652 11.5 12 11.5C11.7348 11.5 11.4804 11.3946 11.2929 11.2071C11.1054 11.0196 11 10.7652 11 10.5ZM4 16V15H2V16C2 16.2652 2.10536 16.5196 2.29289 16.7071C2.48043 16.8946 2.73478 17 3 17C3.26522 17 3.51957 16.8946 3.70711 16.7071C3.89464 16.5196 4 16.2652 4 16ZM14 15V16C14 16.2652 13.8946 16.5196 13.7071 16.7071C13.5196 16.8946 13.2652 17 13 17C12.7348 17 12.4804 16.8946 12.2929 16.7071C12.1054 16.5196 12 16.2652 12 16V15H14Z" fill="#501872"/>
</svg>
