<svg width="20" height="19" viewBox="0 0 20 19" fill="none" xmlns="http://www.w3.org/2000/svg">
<path d="M17.3995 2.14142C17.0335 3.60889 15.7146 4.63794 14.2037 4.63794C12.6927 4.63794 11.3738 3.60889 11.0079 2.14142L10.689 0.87686C10.5368 0.257261 9.90634 -0.119572 9.28312 0.0362339C8.6599 0.19204 8.28669 0.818886 8.44249 1.44211L8.75773 2.70667C9.1563 4.30096 10.2143 5.59089 11.5948 6.31556V17.3923C11.5948 18.0336 12.113 18.5517 12.7543 18.5517C13.3957 18.5517 13.9138 18.0336 13.9138 17.3923V12.7543H14.4936V17.3923C14.4936 18.0336 15.0117 18.5517 15.653 18.5517C16.2944 18.5517 16.8125 18.0336 16.8125 17.3923V6.31556C18.193 5.59089 19.2511 4.30096 19.6496 2.70667L19.9649 1.44211C20.1207 0.822509 19.7438 0.19204 19.1206 0.0362339C18.4974 -0.119572 17.8705 0.257261 17.7184 0.87686L17.4031 2.14142H17.3995ZM14.2037 3.47845C14.665 3.47845 15.1073 3.29521 15.4335 2.96904C15.7597 2.64288 15.9429 2.2005 15.9429 1.73923C15.9429 1.27795 15.7597 0.835576 15.4335 0.509408C15.1073 0.183239 14.665 0 14.2037 0C13.7424 0 13.3 0.183239 12.9739 0.509408C12.6477 0.835576 12.4645 1.27795 12.4645 1.73923C12.4645 2.2005 12.6477 2.64288 12.9739 2.96904C13.3 3.29521 13.7424 3.47845 14.2037 3.47845ZM2.60884 3.47845C3.07011 3.47845 3.51249 3.29521 3.83866 2.96904C4.16483 2.64288 4.34807 2.2005 4.34807 1.73923C4.34807 1.27795 4.16483 0.835576 3.83866 0.509408C3.51249 0.183239 3.07011 0 2.60884 0C2.14757 0 1.70519 0.183239 1.37902 0.509408C1.05285 0.835576 0.869613 1.27795 0.869613 1.73923C0.869613 2.2005 1.05285 2.64288 1.37902 2.96904C1.70519 3.29521 2.14757 3.47845 2.60884 3.47845ZM2.31897 4.63794C1.03991 4.63794 0 5.67785 0 6.9569V10.4354V10.4571V17.3923C0 18.0336 0.518144 18.5517 1.15948 18.5517C1.80082 18.5517 2.31897 18.0336 2.31897 17.3923V12.7543H2.89871V17.3923C2.89871 18.0336 3.41685 18.5517 4.05819 18.5517C4.69953 18.5517 5.21768 18.0336 5.21768 17.3923V9.1563L5.68872 9.8991C5.9025 10.2324 6.27208 10.439 6.66703 10.439H8.40626C9.0476 10.439 9.56574 9.92084 9.56574 9.2795C9.56574 8.63816 9.0476 8.12001 8.40626 8.12001H7.30475L5.9496 5.98584C5.42059 5.14521 4.49662 4.63794 3.50382 4.63794H2.31897Z" fill="#501872"/>
</svg>
