<svg width="15" height="20" viewBox="0 0 15 20" fill="none" xmlns="http://www.w3.org/2000/svg">
<path d="M0 14H3V20H0V14ZM15 0.39C14.92 1.86 14.55 3.13 13.86 4.21C13.17 5.29 12.22 6 11 6.39V20H9V14H7V20H5V8.08C4.72 8.17 4.5 8.28 4.39 8.41C3.45 9.16 3 10.19 3 11.5V12H1V11.5C1 9.53 1.72 7.94 3.13 6.72C4.53 5.56 6.16 5 8 5C9.41 5 10.56 4.64 11.47 3.95C12.5 3.11 13 1.95 13 0.5V0H15V0.39ZM8 0C8.53043 0 9.03914 0.210714 9.41421 0.585786C9.78929 0.960859 10 1.46957 10 2C10 2.53043 9.78929 3.03914 9.41421 3.41421C9.03914 3.78929 8.53043 4 8 4C7.46957 4 6.96086 3.78929 6.58579 3.41421C6.21071 3.03914 6 2.53043 6 2C6 1.46957 6.21071 0.960859 6.58579 0.585786C6.96086 0.210714 7.46957 0 8 0Z" fill="#501872"/>
</svg>
